<svg xmlns="http://www.w3.org/2000/svg" width="15.074" height="18.291" viewBox="0 0 15.074 18.291">
  <path id="Icon_metro-location" data-name="Icon metro-location" d="M15.892,1.928A7.307,7.307,0,0,0,8.355,8.98c0,7.052,7.537,11.239,7.537,11.239s7.537-4.187,7.537-11.239A7.307,7.307,0,0,0,15.892,1.928Zm0,11.371A4.475,4.475,0,0,1,11.275,8.98a4.475,4.475,0,0,1,4.616-4.319A4.475,4.475,0,0,1,20.508,8.98,4.475,4.475,0,0,1,15.892,13.3ZM12.971,8.98a2.831,2.831,0,0,1,2.921-2.733A2.831,2.831,0,0,1,18.812,8.98a2.831,2.831,0,0,1-2.921,2.733A2.831,2.831,0,0,1,12.971,8.98Z" transform="translate(-8.355 -1.928)" fill="#6d8bfb"/>
</svg>
