<svg xmlns="http://www.w3.org/2000/svg" width="159.052" height="159.052" viewBox="0 0 159.052 159.052">
  <g id="Group_63752" data-name="Group 63752" transform="translate(-395.213 -460.901)">
    <g id="Group_18172" data-name="Group 18172" transform="translate(395.213 460.901)">
      <g id="Group_18169" data-name="Group 18169" transform="translate(0 0)">
        <g id="Group_18161" data-name="Group 18161" transform="translate(0 0)">
          <g id="Group_18150" data-name="Group 18150" transform="translate(0 0)">
            <path id="Path_11692" data-name="Path 11692" d="M56.234,112.467c6.227,0,16.352-.508,21.2-5.351a9.3,9.3,0,0,0,2.528-6.417V55.541a23.664,23.664,0,0,0-7.05-16.676,23.992,23.992,0,0,0-16.724-7A23.736,23.736,0,0,0,32.508,55.54,24.064,24.064,0,0,0,39.46,72.313a23.31,23.31,0,0,0,8.047,5.343,26.183,26.183,0,0,0,7.6,1.689,26.607,26.607,0,0,0,4.047.062c.343-.025,3.55-.333,3.55-.746V94.978A39.278,39.278,0,1,1,95.51,56.234a39.073,39.073,0,0,1-2.8,14.587c-1.74,4.347,1.761,7.889,6.108,9.63s7.894,1.021,9.634-3.326a56.242,56.242,0,1,0-52.222,35.342Zm5.652-50.945A8.4,8.4,0,0,1,56.1,63.848a8.166,8.166,0,0,1-5.849-2.327A8.024,8.024,0,0,1,47.8,55.61a7.584,7.584,0,0,1,2.515-5.786,8.2,8.2,0,0,1,11.571,0,7.644,7.644,0,0,1,2.578,5.786A8.4,8.4,0,0,1,61.885,61.522Z" transform="translate(0 79.526) rotate(-45)" fill="rgba(174,61,251,0.65)"/>
            <path id="Path_11695" data-name="Path 11695" d="M56.234,112.467c6.227,0,16.352-.508,21.2-5.351a9.3,9.3,0,0,0,2.528-6.417V55.541a23.664,23.664,0,0,0-7.05-16.676,23.992,23.992,0,0,0-16.724-7A23.736,23.736,0,0,0,32.508,55.54,24.064,24.064,0,0,0,39.46,72.313a23.31,23.31,0,0,0,8.047,5.343,26.183,26.183,0,0,0,7.6,1.689,26.607,26.607,0,0,0,4.047.062c.343-.025,3.55-.333,3.55-.746V94.978A39.278,39.278,0,1,1,95.51,56.234a39.073,39.073,0,0,1-2.8,14.587c-1.74,4.347,2.181,7.749,6.528,9.49s7.474,1.16,9.215-3.187a56.242,56.242,0,1,0-52.222,35.342Zm5.652-50.945A8.4,8.4,0,0,1,56.1,63.848a8.166,8.166,0,0,1-5.849-2.327A8.024,8.024,0,0,1,47.8,55.61a7.584,7.584,0,0,1,2.515-5.786,8.2,8.2,0,0,1,11.571,0,7.644,7.644,0,0,1,2.578,5.786A8.4,8.4,0,0,1,61.885,61.522Z" transform="translate(0 79.526) rotate(-45)" fill="rgba(255,255,255,0.65)"/>
            <path id="Path_11693" data-name="Path 11693" d="M56.234,112.467c6.227,0,16.352-.508,21.2-5.351a9.3,9.3,0,0,0,2.528-6.417V55.541a23.664,23.664,0,0,0-7.05-16.676,23.992,23.992,0,0,0-16.724-7A23.736,23.736,0,0,0,32.508,55.54,24.064,24.064,0,0,0,39.46,72.313a23.31,23.31,0,0,0,8.047,5.343,26.183,26.183,0,0,0,7.6,1.689,26.609,26.609,0,0,0,4.047.062c.343-.025,3.55-.333,3.55-.746V94.978A39.278,39.278,0,1,1,95.51,56.234a39.073,39.073,0,0,1-2.8,14.587c-1.74,4.347,2.041,7.889,6.388,9.63s7.614,1.021,9.354-3.326a56.242,56.242,0,1,0-52.222,35.342Zm5.652-50.945A8.4,8.4,0,0,1,56.1,63.848a8.166,8.166,0,0,1-5.849-2.327A8.024,8.024,0,0,1,47.8,55.61a7.584,7.584,0,0,1,2.515-5.786,8.2,8.2,0,0,1,11.571,0,7.644,7.644,0,0,1,2.578,5.786A8.4,8.4,0,0,1,61.885,61.522Z" transform="translate(0 79.526) rotate(-45)" fill="#a8d2e8" style="mix-blend-mode: hard-light;isolation: isolate"/>
            <path id="Path_11696" data-name="Path 11696" d="M56.234,112.467c6.227,0,16.352-.508,21.2-5.351a9.3,9.3,0,0,0,2.528-6.417V55.541a23.664,23.664,0,0,0-7.05-16.676,23.992,23.992,0,0,0-16.724-7A23.736,23.736,0,0,0,32.508,55.54,24.064,24.064,0,0,0,39.46,72.313a23.31,23.31,0,0,0,8.047,5.343,26.183,26.183,0,0,0,7.6,1.689,26.609,26.609,0,0,0,4.047.062c.343-.025,3.55-.333,3.55-.746V94.978A39.278,39.278,0,1,1,95.51,56.234a39.073,39.073,0,0,1-2.8,14.587c-1.74,4.347,1.808,7.656,6.155,9.4s7.847,1.254,9.587-3.093a56.242,56.242,0,1,0-52.222,35.342Zm5.652-50.945A8.4,8.4,0,0,1,56.1,63.848a8.166,8.166,0,0,1-5.849-2.327A8.024,8.024,0,0,1,47.8,55.61a7.584,7.584,0,0,1,2.515-5.786,8.2,8.2,0,0,1,11.571,0,7.644,7.644,0,0,1,2.578,5.786A8.4,8.4,0,0,1,61.885,61.522Z" transform="translate(0 79.526) rotate(-45)" fill="#fff"/>
          </g>
        </g>
      </g>
    </g>
  </g>
</svg>
