<svg xmlns="http://www.w3.org/2000/svg" width="51" height="51" viewBox="0 0 51 51">
  <g id="Group_63908" data-name="Group 63908" transform="translate(565.992 -219)">
    <circle id="Ellipse_1595" data-name="Ellipse 1595" cx="25.5" cy="25.5" r="25.5" transform="translate(-565.992 219)" fill="#6d8bfb"/>
    <g id="vuesax_bold_direct-notification" data-name="vuesax/bold/direct-notification" transform="translate(-552.646 233)">
      <g id="direct-notification">
        <path id="Vector" d="M6.168,3A3.043,3.043,0,0,1,3.084,6,3.043,3.043,0,0,1,0,3,3.043,3.043,0,0,1,3.084,0,3.043,3.043,0,0,1,6.168,3Z" transform="translate(16.448 2)" fill="#fff"/>
        <path id="Vector-2" data-name="Vector" d="M18.854.01h-3.4A2.518,2.518,0,0,0,13.21,1.35l-.822,1.58a1.133,1.133,0,0,1-1.018.61h-3.2a1.036,1.036,0,0,1-1.018-.62L6.343,1.35A2.509,2.509,0,0,0,4.1,0H.678A.691.691,0,0,0,0,.67V3.76C0,7.23,2.128,9.29,5.685,9.29h8.183c3.351,0,5.418-1.79,5.664-4.96V.67A.675.675,0,0,0,18.854.01Z" transform="translate(2.056 12.71)" fill="#fff"/>
        <path id="Vector-3" data-name="Vector" d="M19.532,7.4v.93a2.189,2.189,0,0,0-.678-.11h-3.4a4.007,4.007,0,0,0-3.608,2.17l-.72,1.37H8.42l-.7-1.36A4.037,4.037,0,0,0,4.1,8.22H.678A2.189,2.189,0,0,0,0,8.33V5.52A5.6,5.6,0,0,1,5.675,0h6.25a1.008,1.008,0,0,1,1.007,1.2,4.235,4.235,0,0,0,.308,2.59A4.653,4.653,0,0,0,18.3,6.42,1.02,1.02,0,0,1,19.532,7.4Z" transform="translate(2.056 3)" fill="#fff"/>
        <path id="Vector-4" data-name="Vector" d="M0,0H24.673V24H0Z" fill="none" opacity="0"/>
        <path id="Vector-5" data-name="Vector" d="M0,0H24.673V24H0Z" transform="translate(24.673 24) rotate(180)" fill="none" opacity="0"/>
      </g>
    </g>
  </g>
</svg>
