<svg id="vuesax_bold_sms" data-name="vuesax/bold/sms" xmlns="http://www.w3.org/2000/svg" width="25.325" height="25.325" viewBox="0 0 25.325 25.325">
  <g id="sms">
    <path id="Vector" d="M0,0H25.325V25.325H0Z" fill="none" opacity="0"/>
    <path id="Vector-2" data-name="Vector" d="M15.828,0H5.276C2.11,0,0,1.583,0,5.276v7.387c0,3.693,2.11,5.276,5.276,5.276H15.828c3.166,0,5.276-1.583,5.276-5.276V5.276C21.1,1.583,18.994,0,15.828,0Zm.5,6.426-3.3,2.638a4.074,4.074,0,0,1-4.938,0L4.78,6.426a.812.812,0,0,1-.127-1.119.789.789,0,0,1,1.108-.127l3.3,2.638a2.518,2.518,0,0,0,2.965,0l3.3-2.638a.779.779,0,0,1,1.108.127A.8.8,0,0,1,16.324,6.426Z" transform="translate(2.11 3.693)" fill="#7284fb"/>
  </g>
</svg>
